HIERARCHY
ROOT Hips
{
	OFFSET 0.000000 71.427986 0.000000
	CHANNELS 6 Xposition Yposition Zposition Xrotation Yrotation Zrotation
	JOINT Pelvis
	{
		OFFSET 0.000000 0.000000 0.000000
		CHANNELS 3 Xrotation Yrotation Zrotation
		JOINT LeftUpLeg
		{
			OFFSET 6.797100 -2.508499 -1.318700
			CHANNELS 3 Xrotation Yrotation Zrotation
			JOINT LeftLeg
			{
				OFFSET 0.069008 -29.241863 0.690200
				CHANNELS 3 Xrotation Yrotation Zrotation
				JOINT LeftFoot
				{
					OFFSET -0.069008 -29.568123 -0.266800
					CHANNELS 3 Xrotation Yrotation Zrotation
					JOINT LeftToeBase
					{
						OFFSET 3.145500 -8.631000 16.059900
						CHANNELS 3 Xrotation Yrotation Zrotation
						End Site
						{
							OFFSET 0.000000 18.501587 0.000000
						}
					}
				}
			}
			JOINT Left_ShortSleeve
			{
				OFFSET 0.265923 -10.480953 1.153800
				CHANNELS 3 Xrotation Yrotation Zrotation
				End Site
				{
					OFFSET 1.725763 19.823879 0.000000
				}
			}
		}
		JOINT RightUpLeg
		{
			OFFSET -6.797100 -2.508499 -1.318700
			CHANNELS 3 Xrotation Yrotation Zrotation
			JOINT RightLeg
			{
				OFFSET -0.082453 -29.241932 0.688000
				CHANNELS 3 Xrotation Yrotation Zrotation
				JOINT RightFoot
				{
					OFFSET 0.082453 -29.568058 -0.264600
					CHANNELS 3 Xrotation Yrotation Zrotation
					JOINT RightToeBase
					{
						OFFSET -3.115300 -8.682800 16.113400
						CHANNELS 3 Xrotation Yrotation Zrotation
						End Site
						{
							OFFSET 0.000000 18.567114 0.000000
						}
					}
				}
			}
			JOINT Right_ShortSleeve
			{
				OFFSET -0.265923 -10.480953 1.153800
				CHANNELS 3 Xrotation Yrotation Zrotation
				End Site
				{
					OFFSET -1.725766 19.823910 0.000000
				}
			}
		}
	}
	JOINT Spine
	{
		OFFSET 0.000000 13.368103 0.470500
		CHANNELS 3 Xrotation Yrotation Zrotation
		JOINT Spine1
		{
			OFFSET 0.147000 13.837402 0.538800
			CHANNELS 3 Xrotation Yrotation Zrotation
			JOINT Spine2
			{
				OFFSET 0.168000 16.242897 -1.435500
				CHANNELS 3 Xrotation Yrotation Zrotation
				JOINT Neck
				{
					OFFSET 0.217200 18.631500 -1.679100
					CHANNELS 3 Xrotation Yrotation Zrotation
					JOINT Head
					{
						OFFSET 0.000000 6.599396 1.385900
						CHANNELS 3 Xrotation Yrotation Zrotation
						JOINT Hat
						{
							OFFSET -0.532200 27.220596 -10.096100
							CHANNELS 3 Xrotation Yrotation Zrotation
							End Site
							{
								OFFSET 0.000000 22.029861 0.000000
							}
						}
						JOINT HairD
						{
							OFFSET -10.777400 17.437393 -1.325900
							CHANNELS 3 Xrotation Yrotation Zrotation
							JOINT HairD1
							{
								OFFSET -3.290299 -11.051193 1.062200
								CHANNELS 3 Xrotation Yrotation Zrotation
								End Site
								{
									OFFSET 0.000000 11.579437 0.000000
								}
							}
						}
						JOINT HairB
						{
							OFFSET -10.777400 17.437393 1.467900
							CHANNELS 3 Xrotation Yrotation Zrotation
							JOINT HairB1
							{
								OFFSET -1.561200 -12.956299 3.590200
								CHANNELS 3 Xrotation Yrotation Zrotation
								End Site
								{
									OFFSET 0.000000 13.534866 0.000000
								}
							}
						}
						JOINT HairA
						{
							OFFSET 9.713100 17.437393 1.467900
							CHANNELS 3 Xrotation Yrotation Zrotation
							JOINT HairA1
							{
								OFFSET 1.561200 -12.956299 3.590200
								CHANNELS 3 Xrotation Yrotation Zrotation
								End Site
								{
									OFFSET 0.000000 13.534866 0.000000
								}
							}
						}
						JOINT HairC
						{
							OFFSET 9.713100 17.437393 -1.325900
							CHANNELS 3 Xrotation Yrotation Zrotation
							JOINT HairC1
							{
								OFFSET 3.290300 -11.051193 1.062200
								CHANNELS 3 Xrotation Yrotation Zrotation
								End Site
								{
									OFFSET 0.000000 11.579437 0.000000
								}
							}
						}
					}
				}
				JOINT LeftShoulder
				{
					OFFSET 5.101800 15.108002 -2.763700
					CHANNELS 3 Xrotation Yrotation Zrotation
					JOINT LeftArm
					{
						OFFSET 9.825497 2.506317 -1.597400
						CHANNELS 3 Xrotation Yrotation Zrotation
						JOINT LeftForeArm
						{
							OFFSET 21.966244 0.000000 0.000000
							CHANNELS 3 Xrotation Yrotation Zrotation
							JOINT LeftHand
							{
								OFFSET 33.879036 0.000000 0.000000
								CHANNELS 3 Xrotation Yrotation Zrotation
								JOINT LeftHandThumb1
								{
									OFFSET 6.715286 -2.359680 3.363841
									CHANNELS 3 Xrotation Yrotation Zrotation
									JOINT LeftHandThumb2
									{
										OFFSET 2.507072 -1.447464 1.447461
										CHANNELS 3 Xrotation Yrotation Zrotation
										JOINT LeftHandThumb3
										{
											OFFSET 2.898338 -1.673355 1.673357
											CHANNELS 3 Xrotation Yrotation Zrotation
											End Site
											{
												OFFSET -0.295959 3.727692 -0.131651
											}
										}
									}
								}
								JOINT LeftHandIndex1
								{
									OFFSET 14.190811 -0.254547 3.840278
									CHANNELS 3 Xrotation Yrotation Zrotation
									JOINT LeftHandIndex2
									{
										OFFSET 3.551727 0.000000 -0.000000
										CHANNELS 3 Xrotation Yrotation Zrotation
										JOINT LeftHandIndex3
										{
											OFFSET 2.894196 0.000000 0.000000
											CHANNELS 3 Xrotation Yrotation Zrotation
											End Site
											{
												OFFSET -1.000603 2.690872 0.366626
											}
										}
									}
								}
								JOINT LeftHandMiddle1
								{
									OFFSET 13.776489 0.000000 0.000000
									CHANNELS 3 Xrotation Yrotation Zrotation
									JOINT LeftHandMiddle2
									{
										OFFSET 3.438232 0.000000 0.000000
										CHANNELS 3 Xrotation Yrotation Zrotation
										JOINT LeftHandMiddle3
										{
											OFFSET 3.691551 0.000000 0.000000
											CHANNELS 3 Xrotation Yrotation Zrotation
											End Site
											{
												OFFSET -1.082298 3.499527 0.457670
											}
										}
									}
								}
								JOINT LeftHandRing1
								{
									OFFSET 13.966164 -0.268127 -3.067488
									CHANNELS 3 Xrotation Yrotation Zrotation
									JOINT LeftHandRing2
									{
										OFFSET 3.162567 0.000000 0.000000
										CHANNELS 3 Xrotation Yrotation Zrotation
										JOINT LeftHandRing3
										{
											OFFSET 3.324348 0.000000 0.000000
											CHANNELS 3 Xrotation Yrotation Zrotation
											End Site
											{
												OFFSET -0.861900 3.184998 0.405154
											}
										}
									}
								}
								JOINT LeftHandPinky1
								{
									OFFSET 13.131393 -0.168503 -5.746925
									CHANNELS 3 Xrotation Yrotation Zrotation
									JOINT LeftHandPinky2
									{
										OFFSET 2.849182 0.000000 0.000000
										CHANNELS 3 Xrotation Yrotation Zrotation
										JOINT LeftHandPinky3
										{
											OFFSET 2.805038 0.000000 0.000000
											CHANNELS 3 Xrotation Yrotation Zrotation
											End Site
											{
												OFFSET -0.882500 2.642609 0.325652
											}
										}
									}
								}
							}
							JOINT Left_Sleeve
							{
								OFFSET 6.592125 -0.646545 0.805568
								CHANNELS 3 Xrotation Yrotation Zrotation
								End Site
								{
									OFFSET -0.000179 20.275787 -0.000000
								}
							}
						}
					}
				}
				JOINT RightShoulder
				{
					OFFSET -5.731700 15.108002 -2.763700
					CHANNELS 3 Xrotation Yrotation Zrotation
					JOINT RightArm
					{
						OFFSET -9.825497 2.506317 -1.597400
						CHANNELS 3 Xrotation Yrotation Zrotation
						JOINT RightForeArm
						{
							OFFSET -21.966242 0.000000 0.000000
							CHANNELS 3 Xrotation Yrotation Zrotation
							JOINT RightHand
							{
								OFFSET -33.879032 0.000000 0.000000
								CHANNELS 3 Xrotation Yrotation Zrotation
								JOINT RightHandThumb1
								{
									OFFSET -6.715286 -2.359680 3.363841
									CHANNELS 3 Xrotation Yrotation Zrotation
									JOINT RightHandThumb2
									{
										OFFSET -2.507072 -1.447464 1.447461
										CHANNELS 3 Xrotation Yrotation Zrotation
										JOINT RightHandThumb3
										{
											OFFSET -2.898338 -1.673355 1.673357
											CHANNELS 3 Xrotation Yrotation Zrotation
											End Site
											{
												OFFSET 0.295959 3.727692 -0.131651
											}
										}
									}
								}
								JOINT RightHandIndex1
								{
									OFFSET -14.190811 -0.254547 3.840278
									CHANNELS 3 Xrotation Yrotation Zrotation
									JOINT RightHandIndex2
									{
										OFFSET -3.551727 0.000000 -0.000000
										CHANNELS 3 Xrotation Yrotation Zrotation
										JOINT RightHandIndex3
										{
											OFFSET -2.894196 0.000000 0.000000
											CHANNELS 3 Xrotation Yrotation Zrotation
											End Site
											{
												OFFSET 1.000603 2.690872 0.366626
											}
										}
									}
								}
								JOINT RightHandMiddle1
								{
									OFFSET -13.776489 0.000000 0.000000
									CHANNELS 3 Xrotation Yrotation Zrotation
									JOINT RightHandMiddle2
									{
										OFFSET -3.438232 0.000000 0.000000
										CHANNELS 3 Xrotation Yrotation Zrotation
										JOINT RightHandMiddle3
										{
											OFFSET -3.691551 0.000000 0.000000
											CHANNELS 3 Xrotation Yrotation Zrotation
											End Site
											{
												OFFSET 1.082298 3.499527 0.457670
											}
										}
									}
								}
								JOINT RightHandRing1
								{
									OFFSET -13.966164 -0.268127 -3.067488
									CHANNELS 3 Xrotation Yrotation Zrotation
									JOINT RightHandRing2
									{
										OFFSET -3.162567 0.000000 0.000000
										CHANNELS 3 Xrotation Yrotation Zrotation
										JOINT RightHandRing3
										{
											OFFSET -3.324348 0.000000 0.000000
											CHANNELS 3 Xrotation Yrotation Zrotation
											End Site
											{
												OFFSET 0.861900 3.184998 0.405154
											}
										}
									}
								}
								JOINT RightHandPinky1
								{
									OFFSET -13.131393 -0.168503 -5.746925
									CHANNELS 3 Xrotation Yrotation Zrotation
									JOINT RightHandPinky2
									{
										OFFSET -2.849182 0.000000 0.000000
										CHANNELS 3 Xrotation Yrotation Zrotation
										JOINT RightHandPinky3
										{
											OFFSET -2.805038 0.000000 0.000000
											CHANNELS 3 Xrotation Yrotation Zrotation
											End Site
											{
												OFFSET 0.882500 2.642609 0.325652
											}
										}
									}
								}
							}
							JOINT Right_Sleeve
							{
								OFFSET -6.592125 -0.646545 0.805568
								CHANNELS 3 Xrotation Yrotation Zrotation
								End Site
								{
									OFFSET 0.000179 20.275787 -0.000000
								}
							}
						}
					}
				}
				JOINT Bind_Right_JacketString
				{
					OFFSET -3.534800 11.969597 7.200700
					CHANNELS 3 Xrotation Yrotation Zrotation
					JOINT Bind_Right_JacketString1
					{
						OFFSET -0.319900 -6.102600 2.794100
						CHANNELS 3 Xrotation Yrotation Zrotation
						End Site
						{
							OFFSET 0.000000 6.719452 0.000000
						}
					}
				}
				JOINT Bind_Left_JacketString
				{
					OFFSET 2.904800 11.969597 7.200700
					CHANNELS 3 Xrotation Yrotation Zrotation
					JOINT Bind_Left_JacketString1
					{
						OFFSET 0.364800 -5.904503 3.186800
						CHANNELS 3 Xrotation Yrotation Zrotation
						End Site
						{
							OFFSET 0.000000 6.719513 0.000000
						}
					}
				}
				JOINT HairE
				{
					OFFSET 5.915200 17.612701 -11.592200
					CHANNELS 3 Xrotation Yrotation Zrotation
					JOINT HairE1
					{
						OFFSET 0.289200 -7.171898 -1.284500
						CHANNELS 3 Xrotation Yrotation Zrotation
						End Site
						{
							OFFSET 0.000000 7.291756 0.000000
						}
					}
				}
				JOINT HairF
				{
					OFFSET -0.864800 17.612701 -11.592200
					CHANNELS 3 Xrotation Yrotation Zrotation
					JOINT HairF1
					{
						OFFSET 0.000000 -14.087097 -2.127501
						CHANNELS 3 Xrotation Yrotation Zrotation
						End Site
						{
							OFFSET 0.000000 14.246841 0.000000
						}
					}
				}
				JOINT HairG
				{
					OFFSET -8.087700 17.612701 -11.592200
					CHANNELS 3 Xrotation Yrotation Zrotation
					JOINT HairG1
					{
						OFFSET -0.293600 -6.081398 -0.910100
						CHANNELS 3 Xrotation Yrotation Zrotation
						End Site
						{
							OFFSET 0.000000 6.156120 0.000000
						}
					}
				}
			}
		}
	}
	JOINT Pouch
	{
		OFFSET 0.000000 4.394501 10.847300
		CHANNELS 3 Xrotation Yrotation Zrotation
		End Site
		{
			OFFSET 0.000000 21.880577 0.000000
		}
	}
	JOINT Bag
	{
		OFFSET -13.229000 4.813004 -0.593300
		CHANNELS 3 Xrotation Yrotation Zrotation
		End Site
		{
			OFFSET 0.000000 21.880577 0.000000
		}
	}
	JOINT OccupyGuyFacialAnim_Joint
	{
		OFFSET 1.000000 -70.206398 -1.655000
		CHANNELS 3 Xrotation Yrotation Zrotation
		End Site
		{
			OFFSET 0.000000 21.880577 0.000000
		}
	}
}
MOTION
Frames: 4
Frame Time: 0.016667
8.257318 70.761688 -1.394523 -0.400241 -19.198835 -2.356156 -0.000000 0.000000 -0.000000 -9.937170 6.839993 -1.910665 18.454606 9.444611 2.693818 -10.752684 19.313914 1.770890 -0.000000 -0.000001 0.000000 0.000001 0.000001 0.000001 -11.661592 -7.659851 -11.330013 14.902954 3.147532 2.464273 -13.684275 -3.824829 7.839725 -0.000001 -0.000000 0.000000 0.000001 0.000000 0.000000 4.345581 1.232859 -2.324434 0.212745 0.451137 -0.248040 0.209997 0.457548 -0.249456 -0.676049 0.363727 3.241258 11.273840 13.135220 10.728868 -0.000000 0.000000 0.000001 -0.000000 0.000000 0.000001 -0.000000 0.000000 0.000001 -0.000000 0.000000 0.000001 -0.000000 0.000000 -0.000000 -0.000000 0.000000 0.000001 -0.000000 0.000000 -0.000000 -0.000000 0.000000 0.000001 -0.000000 0.000000 0.000001 2.666472 -4.458575 -11.991964 -11.925380 -18.438350 -60.942629 0.000006 -15.296892 0.000023 21.654172 -9.509537 -12.534859 3.397828 -6.557746 3.595386 15.782412 22.471700 8.580119 0.000001 -0.000000 0.000000 -1.195637 -0.465170 -28.245552 0.364156 2.035047 -20.288324 0.000001 0.000001 0.000002 0.355579 4.762394 -38.285987 0.507594 2.387224 -24.004930 -0.000001 0.000003 0.000003 6.488003 10.665002 -48.294007 0.477658 2.318866 -23.275651 -0.000002 -0.000003 -0.000005 12.833107 15.275973 -52.520104 0.697256 2.773802 -28.215329 -0.000001 -0.000001 0.000003 -0.000000 0.000003 -0.000001 2.229751 0.128999 15.927383 5.674412 -0.408652 64.436934 0.000001 15.408085 0.000009 1.035992 6.325149 -5.049652 -1.352771 9.111909 0.370108 16.874375 -29.512780 -6.239178 -0.000001 0.000000 -0.000000 -1.055114 2.974096 11.633322 0.216277 -1.404166 17.511915 -0.000000 0.000000 -0.000001 -0.609024 -1.094604 18.696410 0.373075 -1.828102 23.066799 0.000001 0.000000 -0.000001 1.805372 -6.986237 25.613583 0.549366 -2.196239 28.084476 -0.000002 0.000001 -0.000004 4.328859 -11.691949 36.199040 0.703971 -2.463958 31.885731 -0.000000 0.000001 -0.000005 -0.000001 -0.000000 0.000001 0.000000 -0.000002 0.000000 0.000000 -0.000000 -0.000000 0.000000 -0.000002 0.000000 0.000000 -0.000002 0.000000 0.000000 -0.000002 0.000000 0.000000 -0.000000 -0.000000 0.000000 -0.000002 0.000000 0.000000 -0.000002 0.000000 0.000000 -0.000002 0.000000 0.000000 -0.000000 -0.000000 -0.000000 0.000000 -0.000000 -0.000000 0.000000 -0.000000 -0.000000 0.000000 -0.000000 
8.435367 70.756851 -1.316222 -0.322306 -19.499362 -2.466934 -0.000000 0.000001 -0.000000 -9.972418 6.824633 -1.959720 18.403755 9.438067 2.699888 -10.730441 19.602476 1.915794 0.000000 -0.000001 -0.000000 -0.000000 -0.000000 -0.000000 -11.745694 -7.610167 -11.332617 14.832251 3.243162 2.470999 -13.797303 -3.838700 7.817868 -0.000001 0.000000 -0.000000 -0.000000 0.000004 0.000001 4.284197 0.978128 -2.393516 0.189583 0.383779 -0.265577 0.187300 0.390520 -0.267591 -0.708659 0.408961 3.345580 11.332364 13.840951 11.023656 -0.000000 -0.000001 -0.000000 -0.000000 -0.000001 -0.000000 -0.000000 -0.000001 0.000000 -0.000000 -0.000001 -0.000000 -0.000000 0.000000 -0.000000 -0.000000 -0.000001 -0.000000 -0.000000 0.000000 -0.000000 -0.000000 -0.000001 -0.000000 -0.000000 -0.000001 -0.000000 2.653986 -4.597922 -11.892586 -12.075094 -19.153013 -61.241218 -0.000003 -15.715092 0.000014 21.497076 -9.669888 -10.948838 3.397829 -6.557747 3.595386 15.782129 22.476880 8.582052 0.000002 0.000000 -0.000005 -1.165826 -0.588581 -27.380968 0.367646 2.044480 -20.386812 0.000003 -0.000000 -0.000000 0.364644 4.782504 -38.483246 0.512349 2.397861 -24.118643 0.000002 -0.000001 0.000002 6.537696 10.676668 -48.526865 0.471589 2.304722 -23.125067 -0.000001 -0.000001 -0.000005 12.766403 15.313071 -52.209556 0.688196 2.756872 -28.027509 0.000000 -0.000001 -0.000001 0.000000 -0.000000 -0.000001 2.263678 -0.037338 16.070484 5.438912 -0.171342 64.671475 -0.000007 15.685821 0.000004 1.013119 5.195172 -3.929787 -1.352773 9.111911 0.370108 16.862004 -29.498327 -6.250195 -0.000001 -0.000001 0.000003 -1.134066 2.859889 12.607722 0.219262 -1.413565 17.633030 -0.000001 0.000000 -0.000001 -0.612863 -1.120408 18.937845 0.356228 -1.788057 22.533008 0.000001 0.000000 -0.000001 1.775714 -6.972100 25.217379 0.529208 -2.158061 27.553864 0.000001 -0.000000 -0.000004 4.168396 -11.681609 35.243633 0.685222 -2.433592 31.446922 0.000001 0.000001 -0.000001 -0.000001 0.000000 -0.000001 -0.000001 0.000001 0.000000 -0.000001 -0.000001 -0.000000 -0.000001 0.000001 0.000000 -0.000001 0.000001 0.000000 -0.000001 0.000001 0.000000 -0.000001 -0.000001 -0.000000 -0.000001 0.000001 0.000000 -0.000001 0.000001 0.000000 -0.000001 0.000001 0.000000 -0.000001 -0.000001 -0.000000 -0.000000 0.000001 -0.000000 -0.000000 0.000001 -0.000000 -0.000000 0.000001 -0.000000 
8.603634 70.752876 -1.240911 -0.220201 -19.783436 -2.556978 0.000000 0.000000 -0.000000 -10.021213 6.804921 -2.014126 18.333925 9.430791 2.706564 -10.705072 19.886934 2.056677 0.000000 -0.000002 -0.000000 0.000000 -0.000001 -0.000000 -11.847480 -7.561930 -11.337752 14.764772 3.292442 2.464228 -13.919288 -3.855296 7.812325 -0.000000 -0.000000 0.000000 -0.000000 0.000000 -0.000001 4.208745 0.706446 -2.487024 0.165082 0.312360 -0.289361 0.163354 0.319508 -0.292050 -0.743325 0.449654 3.455309 11.434275 14.520116 11.315072 0.000001 -0.000000 -0.000001 0.000001 -0.000000 -0.000001 0.000001 -0.000000 -0.000001 0.000001 -0.000000 -0.000001 0.000001 -0.000000 -0.000001 0.000001 -0.000000 -0.000001 0.000001 -0.000000 -0.000001 0.000001 -0.000000 -0.000001 0.000001 -0.000000 -0.000001 2.633634 -4.716139 -11.762446 -12.145291 -19.959027 -61.514623 -0.000003 -16.226685 -0.000006 21.493173 -9.651156 -9.215239 3.397826 -6.557747 3.595387 15.782083 22.484733 8.583422 0.000001 -0.000000 0.000001 -1.129468 -0.729820 -26.391118 0.368805 2.047553 -20.418640 0.000002 -0.000001 -0.000002 0.367281 4.788597 -38.547030 0.516965 2.408108 -24.228751 0.000001 0.000000 0.000001 6.588669 10.690081 -48.752476 0.466755 2.293429 -23.004975 -0.000000 0.000001 -0.000001 12.724899 15.349706 -51.963212 0.679190 2.739906 -27.839761 -0.000001 0.000002 0.000003 0.000004 -0.000001 0.000000 2.301186 -0.222078 16.229417 5.160318 0.078143 64.897780 -0.000002 15.935545 0.000022 1.068245 3.974128 -2.851378 -1.352772 9.111909 0.370104 16.865288 -29.501752 -6.248120 -0.000001 -0.000001 0.000002 -1.209424 2.733153 13.613602 0.224442 -1.429757 17.841795 0.000000 0.000001 -0.000001 -0.620056 -1.162474 19.354190 0.341807 -1.752900 22.066079 -0.000001 -0.000001 -0.000003 1.768460 -6.976967 25.051962 0.508412 -2.117761 26.996447 -0.000000 0.000000 -0.000003 4.032116 -11.667265 34.463355 0.664840 -2.399969 30.963560 -0.000001 0.000001 -0.000003 -0.000002 0.000000 -0.000001 -0.000000 -0.000001 -0.000000 -0.000000 -0.000001 -0.000000 -0.000000 -0.000001 -0.000000 -0.000000 -0.000001 -0.000000 -0.000000 -0.000001 -0.000000 -0.000000 -0.000001 -0.000000 -0.000000 -0.000001 -0.000000 -0.000000 -0.000001 -0.000000 -0.000000 -0.000001 -0.000000 -0.000000 -0.000001 -0.000000 0.000000 0.000000 -0.000000 0.000000 0.000000 -0.000000 0.000000 0.000000 -0.000000 
8.762556 70.750328 -1.168916 -0.083903 -20.059299 -2.629812 -0.000000 -0.000001 -0.000000 -10.100234 6.772424 -2.076000 18.258074 9.422609 2.728182 -10.696629 20.184467 2.192666 -0.000000 -0.000000 -0.000000 0.000001 0.000001 0.000001 -11.967983 -7.512411 -11.336648 14.675141 3.320581 2.455490 -14.019429 -3.870630 7.803833 -0.000000 0.000001 -0.000000 0.000001 -0.000000 -0.000000 4.110614 0.429240 -2.602901 0.138035 0.240250 -0.315975 0.136931 0.247835 -0.319406 -0.779927 0.485274 3.569735 11.569296 15.164372 11.594004 -0.000001 0.000000 -0.000000 -0.000001 0.000000 -0.000000 -0.000001 0.000000 -0.000000 -0.000001 0.000000 -0.000000 -0.000001 0.000000 -0.000000 -0.000001 0.000000 -0.000000 -0.000001 0.000000 -0.000000 -0.000001 0.000000 -0.000000 -0.000001 0.000000 -0.000000 2.611130 -4.805602 -11.630853 -12.175087 -20.855180 -61.745252 -0.000004 -16.823738 0.000000 21.773858 -9.467355 -7.469725 3.397830 -6.557744 3.595387 15.782463 22.486803 8.582350 0.000000 -0.000001 0.000002 -1.094907 -0.883131 -25.362217 0.367670 2.044524 -20.387164 0.000001 0.000003 0.000000 0.363611 4.781239 -38.484059 0.522125 2.419545 -24.351241 0.000001 -0.000002 0.000000 6.647706 10.706557 -49.003612 0.463681 2.286123 -22.927581 0.000000 0.000000 -0.000006 12.730813 15.396628 -51.808832 0.670465 2.723335 -27.656730 -0.000000 -0.000001 0.000001 0.000002 -0.000002 0.000004 2.342155 -0.439312 16.405411 4.855272 0.354273 65.099175 -0.000010 16.165733 0.000028 1.199196 2.678671 -1.823890 -1.352773 9.111912 0.370108 16.871582 -29.508760 -6.243211 0.000000 0.000000 0.000002 -1.296306 2.624666 14.634730 0.231598 -1.451790 18.126296 -0.000001 -0.000001 0.000000 -0.630224 -1.217384 19.921780 0.330240 -1.724110 21.684911 0.000001 0.000000 -0.000001 1.780254 -6.994574 25.111515 0.487751 -2.076726 26.431823 -0.000000 0.000000 -0.000005 3.913101 -11.644071 33.865888 0.643810 -2.364599 30.457688 -0.000000 0.000001 -0.000001 0.000000 0.000000 -0.000001 -0.000000 -0.000001 0.000000 -0.000000 0.000001 0.000000 -0.000000 -0.000001 -0.000000 -0.000000 -0.000001 -0.000000 -0.000000 -0.000001 0.000000 -0.000000 0.000001 -0.000000 -0.000000 -0.000001 -0.000000 -0.000000 -0.000001 -0.000000 -0.000000 -0.000001 0.000000 -0.000000 0.000001 -0.000000 -0.000000 -0.000001 -0.000000 -0.000000 -0.000001 -0.000000 -0.000000 -0.000001 -0.000000 
